<svg width="36" height="36" viewBox="0 0 36 36" fill="none" xmlns="http://www.w3.org/2000/svg">
<rect width="36" height="36" rx="18" fill="black" fill-opacity="0.1"/>
<path d="M14.6267 13.3333C14.6265 13.687 14.4858 14.026 14.2357 14.276C13.9855 14.5259 13.6463 14.6662 13.2927 14.666C12.939 14.6658 12.6 14.5252 12.3501 14.275C12.1001 14.0248 11.9598 13.6856 11.96 13.332C11.9602 12.9784 12.1008 12.6393 12.351 12.3894C12.6012 12.1395 12.9404 11.9992 13.294 11.9993C13.6476 11.9995 13.9867 12.1402 14.2366 12.3903C14.4865 12.6405 14.6268 12.9797 14.6267 13.3333ZM14.6667 15.6533H12V24H14.6667V15.6533ZM18.88 15.6533H16.2267V24H18.8533V19.62C18.8533 17.18 22.0333 16.9533 22.0333 19.62V24H24.6667V18.7133C24.6667 14.6 19.96 14.7533 18.8533 16.7733L18.88 15.6533Z" fill="white"/>
</svg>
