<svg width="36" height="36" viewBox="0 0 36 36" fill="none" xmlns="http://www.w3.org/2000/svg">
<rect width="36" height="36" rx="18" fill="black" fill-opacity="0.1"/>
<path fill-rule="evenodd" clip-rule="evenodd" d="M23.1847 12.9533C23.3494 12.884 23.5297 12.8601 23.7069 12.8841C23.884 12.9081 24.0514 12.9791 24.1918 13.0898C24.3322 13.2005 24.4403 13.3467 24.5049 13.5134C24.5696 13.68 24.5884 13.861 24.5593 14.0373L23.0473 23.2087C22.9007 24.0933 21.93 24.6007 21.1187 24.16C20.44 23.7913 19.432 23.2233 18.5253 22.6307C18.072 22.334 16.6833 21.384 16.854 20.708C17.0007 20.13 19.334 17.958 20.6673 16.6667C21.1907 16.1593 20.952 15.8667 20.334 16.3333C18.7993 17.492 16.3353 19.254 15.5207 19.75C14.802 20.1873 14.4273 20.262 13.9793 20.1873C13.162 20.0513 12.404 19.8407 11.7853 19.584C10.9493 19.2373 10.99 18.088 11.7847 17.7533L23.1847 12.9533Z" fill="white"/>
</svg>
