<svg width="36" height="36" viewBox="0 0 36 36" fill="none" xmlns="http://www.w3.org/2000/svg">
<rect width="36" height="36" rx="18" fill="black" fill-opacity="0.1"/>
<path d="M14.5 9.66667H21.5C24.1667 9.66667 26.3333 11.8333 26.3333 14.5V21.5C26.3333 22.7819 25.8241 24.0113 24.9177 24.9177C24.0113 25.8241 22.7819 26.3333 21.5 26.3333H14.5C11.8333 26.3333 9.66667 24.1667 9.66667 21.5V14.5C9.66667 13.2181 10.1759 11.9887 11.0823 11.0823C11.9887 10.1759 13.2181 9.66667 14.5 9.66667ZM14.3333 11.3333C13.5377 11.3333 12.7746 11.6494 12.212 12.212C11.6494 12.7746 11.3333 13.5377 11.3333 14.3333V21.6667C11.3333 23.325 12.675 24.6667 14.3333 24.6667H21.6667C22.4623 24.6667 23.2254 24.3506 23.788 23.788C24.3506 23.2254 24.6667 22.4623 24.6667 21.6667V14.3333C24.6667 12.675 23.325 11.3333 21.6667 11.3333H14.3333ZM22.375 12.5833C22.6513 12.5833 22.9162 12.6931 23.1116 12.8884C23.3069 13.0838 23.4167 13.3487 23.4167 13.625C23.4167 13.9013 23.3069 14.1662 23.1116 14.3616C22.9162 14.5569 22.6513 14.6667 22.375 14.6667C22.0987 14.6667 21.8338 14.5569 21.6384 14.3616C21.4431 14.1662 21.3333 13.9013 21.3333 13.625C21.3333 13.3487 21.4431 13.0838 21.6384 12.8884C21.8338 12.6931 22.0987 12.5833 22.375 12.5833ZM18 13.8333C19.1051 13.8333 20.1649 14.2723 20.9463 15.0537C21.7277 15.8351 22.1667 16.8949 22.1667 18C22.1667 19.1051 21.7277 20.1649 20.9463 20.9463C20.1649 21.7277 19.1051 22.1667 18 22.1667C16.8949 22.1667 15.8351 21.7277 15.0537 20.9463C14.2723 20.1649 13.8333 19.1051 13.8333 18C13.8333 16.8949 14.2723 15.8351 15.0537 15.0537C15.8351 14.2723 16.8949 13.8333 18 13.8333ZM18 15.5C17.337 15.5 16.7011 15.7634 16.2322 16.2322C15.7634 16.7011 15.5 17.337 15.5 18C15.5 18.663 15.7634 19.2989 16.2322 19.7678C16.7011 20.2366 17.337 20.5 18 20.5C18.663 20.5 19.2989 20.2366 19.7678 19.7678C20.2366 19.2989 20.5 18.663 20.5 18C20.5 17.337 20.2366 16.7011 19.7678 16.2322C19.2989 15.7634 18.663 15.5 18 15.5Z" fill="white"/>
</svg>
