<svg width="36" height="36" viewBox="0 0 36 36" fill="none" xmlns="http://www.w3.org/2000/svg">
<rect width="36" height="36" rx="18" fill="black" fill-opacity="0.1"/>
<g clip-path="url(#clip0_1_13)">
<path d="M18.3848 9.82275C17.901 9.82275 17.46 10.0778 16.5795 10.5855L11.7563 13.365C10.9256 13.834 10.2333 14.5139 9.74938 15.336C9.26545 16.1581 9.00696 17.0933 9 18.0473V18.2243C9.00701 19.177 9.26491 20.111 9.74773 20.9323C10.2305 21.7536 10.9212 22.4333 11.7503 22.9028L14.7675 24.645C16.533 25.665 17.4158 26.1765 18.3855 26.1765C19.3545 26.1773 20.238 25.668 22.0043 24.648L25.1925 22.8083C26.0753 22.2983 26.5155 22.0433 26.7578 21.624C27 21.204 27.0008 20.694 27 19.674V17.7015C27.0002 17.5647 26.9643 17.4302 26.8961 17.3116C26.8278 17.193 26.7295 17.0944 26.6111 17.0258C26.4927 16.9572 26.3584 16.9209 26.2215 16.9206C26.0847 16.9204 25.9502 16.9561 25.8315 17.0243L19.2855 20.7923C18.8453 21.045 18.6255 21.1725 18.3848 21.1725C18.1425 21.1725 17.9228 21.0465 17.4818 20.793L13.0538 18.2483C12.831 18.12 12.7193 18.0563 12.63 18.045C12.5314 18.032 12.4312 18.052 12.3452 18.1019C12.2592 18.1519 12.1921 18.2289 12.1545 18.321C12.1208 18.4043 12.1208 18.5325 12.1223 18.7898C12.1238 18.9788 12.1223 19.0733 12.141 19.1603C12.1808 19.3545 12.2828 19.53 12.4313 19.6605C12.498 19.7183 12.5798 19.7655 12.7433 19.86L17.4795 22.5975C17.9213 22.8525 18.1425 22.98 18.3848 22.98C18.627 22.98 18.8475 22.8525 19.2893 22.5983L25.0943 19.2465C25.2458 19.1595 25.3208 19.1175 25.377 19.149C25.4333 19.182 25.4333 19.269 25.4333 19.443V20.3378C25.4333 20.5928 25.434 20.7203 25.3733 20.8245C25.3133 20.9295 25.203 20.9925 24.9818 21.12L20.1953 23.8838C19.3118 24.3938 18.87 24.6488 18.3855 24.6488C17.901 24.6488 17.4585 24.3938 16.5765 23.8823L12.099 21.2933L12.0668 21.2745C11.6053 21.0048 11.2221 20.6195 10.955 20.1565C10.6879 19.6936 10.5461 19.169 10.5435 18.6345V17.775C10.5437 17.4797 10.6214 17.1897 10.7688 16.9338C10.9162 16.678 11.1282 16.4653 11.3835 16.317C11.6094 16.1863 11.8657 16.1174 12.1266 16.1172C12.3876 16.1171 12.644 16.1858 12.87 16.3163L16.5795 18.4598C17.46 18.969 17.901 19.224 18.3848 19.2248C18.8685 19.2248 19.3095 18.9698 20.1923 18.462L25.8038 15.2325C25.9284 15.1608 26.0319 15.0574 26.1039 14.9329C26.1758 14.8084 26.2137 14.6672 26.2137 14.5234C26.2137 14.3796 26.1758 14.2383 26.1039 14.1138C26.0319 13.9893 25.9284 13.886 25.8038 13.8143L20.19 10.5825C19.3088 10.0763 18.8685 9.82275 18.3855 9.82275H18.3848Z" fill="white"/>
</g>
<defs>
<clipPath id="clip0_1_13">
<rect width="18" height="18" fill="white" transform="translate(9 9)"/>
</clipPath>
</defs>
</svg>
