<svg version="1.1" viewBox="0.0 0.0 960.0 960.0" fill="none" stroke="none" stroke-linecap="square" stroke-miterlimit="10" xmlns:xlink="http://www.w3.org/1999/xlink" xmlns="http://www.w3.org/2000/svg"><clipPath id="p.0"><path d="m0 0l960.0 0l0 960.0l-960.0 0l0 -960.0z" clip-rule="nonzero"/></clipPath><g clip-path="url(#p.0)"><path fill="#000000" fill-opacity="0.0" d="m0 0l960.0 0l0 960.0l-960.0 0z" fill-rule="evenodd"/><defs><linearGradient id="p.1" gradientUnits="userSpaceOnUse" gradientTransform="matrix(30.984037513703335 0.0 0.0 30.984037513703335 0.0 0.0)" spreadMethod="pad" x1="30.98479726247146" y1="30.984291646943085" x2="30.985138751493242" y2="2.541351216048289E-4"><stop offset="0.0" stop-color="#ff9b00"/><stop offset="1.0" stop-color="#ffae00"/></linearGradient></defs><path fill="url(#p.1)" d="m0.034120735 160.01108l0 0c0 -88.36733 71.63587 -160.0032 160.0032 -160.0032l639.99365 0l0 0c42.435486 0 83.13287 16.857431 113.13934 46.863853c30.006409 30.006416 46.86383 70.70386 46.86383 113.13935l0 639.99365c0 88.36731 -71.635864 160.00317 -160.00317 160.00317l-639.99365 0c-88.36733 0 -160.0032 -71.635864 -160.0032 -160.00317z" fill-rule="evenodd"/><path fill="#ffffff" d="m43.118122 479.99472l218.40282 -378.488l437.02112 0l218.40283 378.488l-218.40283 378.488l-437.02112 0z" fill-rule="evenodd"/><path fill="#ff9b00" d="m233.42001 281.0415l168.035 461.89624l78.1994 -215.66333l78.692444 215.56476l168.03503 -461.79767l-428.27234 0l0 37.176544l375.219 0l-114.98169 316.04984l-78.692444 -215.76193l-78.1994 215.66336l-128.49155 -353.1278z" fill-rule="evenodd"/><path stroke="#ff9b00" stroke-width="8.0" stroke-linejoin="round" stroke-linecap="butt" d="m233.42001 281.0415l168.035 461.89624l78.1994 -215.66333l78.692444 215.56476l168.03503 -461.79767l-428.27234 0l0 37.176544l375.219 0l-114.98169 316.04984l-78.692444 -215.76193l-78.1994 215.66336l-128.49155 -353.1278z" fill-rule="evenodd"/></g></svg>